<?xml version="1.0" standalone="no"?><!-- Generator: Gravit.io --><svg xmlns="http://www.w3.org/2000/svg" xmlns:xlink="http://www.w3.org/1999/xlink" style="isolation:isolate" viewBox="361.5 242.5 151 151" width="151" height="151"><defs><clipPath id="_clipPath_bKBH4nsCKtzT88s4TaNpH4SrdEgffyN6"><rect x="360.5" y="241.5" width="153" height="153"/></clipPath></defs><g clip-path="url(#_clipPath_bKBH4nsCKtzT88s4TaNpH4SrdEgffyN6)"><g><defs><filter id="AGnNNAZyuck3D0H7ErJtCewIjdiUzCPs" x="-200%" y="-200%" width="400%" height="400%" filterUnits="objectBoundingBox" color-interpolation-filters="sRGB"><feGaussianBlur xmlns="http://www.w3.org/2000/svg" stdDeviation="0"/></filter></defs><g filter="url(#AGnNNAZyuck3D0H7ErJtCewIjdiUzCPs)"><path d=" M 489.133 264.168 C 503.244 277.772 512 296.872 512 318 C 512 359.394 478.394 393 437 393 C 395.606 393 362 359.394 362 318 C 362 297.591 370.17 279.075 383.451 265.584" fill="rgb(235,235,235)" vector-effect="non-scaling-stroke" stroke-width="1" stroke="rgb(0,0,0)" stroke-linejoin="miter" stroke-linecap="square" stroke-miterlimit="3"/></g><defs><filter id="PnNpzWM7IuyuzcHU5g6TOEwAC1T2vKlL" x="-200%" y="-200%" width="400%" height="400%" filterUnits="objectBoundingBox" color-interpolation-filters="sRGB"><feGaussianBlur xmlns="http://www.w3.org/2000/svg" stdDeviation="0"/></filter></defs><g filter="url(#PnNpzWM7IuyuzcHU5g6TOEwAC1T2vKlL)"><path d=" M 383.451 265.584 C 397.032 251.637 416.015 243 437 243 C 457.265 243 475.664 251.055 489.133 264.168" fill="rgb(235,235,235)" vector-effect="non-scaling-stroke" stroke-width="1" stroke="rgb(0,0,0)" stroke-linejoin="miter" stroke-linecap="square" stroke-miterlimit="3"/></g><circle vector-effect="non-scaling-stroke" cx="436.2921613667693" cy="318" r="70" fill="rgb(255,255,255)" stroke-width="1" stroke="rgb(0,0,0)" stroke-linejoin="miter" stroke-linecap="square" stroke-miterlimit="3"/><path d=" M 406.221 328.635 L 406.221 328.635 L 406.221 326.877 L 406.221 326.877 Q 406.221 326.438 406.572 326.578 L 406.572 326.578 L 406.572 326.578 Q 408.734 327.439 411.477 327.439 L 411.477 327.439 L 411.477 327.439 Q 414.219 327.439 415.616 326.06 L 415.616 326.06 L 415.616 326.06 Q 417.014 324.68 417.014 321.691 L 417.014 321.691 L 417.014 306.75 L 408.734 306.75 L 408.734 306.75 Q 408.383 306.75 408.383 306.381 L 408.383 306.381 L 408.383 304.588 L 408.383 304.588 Q 408.383 304.236 408.734 304.219 L 408.734 304.219 L 419.896 304.219 L 419.896 304.219 Q 420.248 304.219 420.266 304.588 L 420.266 304.588 L 420.266 321.691 L 420.266 321.691 Q 420.266 325.541 418.068 327.756 L 418.068 327.756 L 418.068 327.756 Q 415.871 329.971 411.617 329.971 L 411.617 329.971 L 411.617 329.971 Q 408.734 329.971 406.572 329.109 L 406.572 329.109 L 406.572 329.109 Q 406.221 328.916 406.221 328.635 Z  M 427.104 329.074 L 427.104 329.074 L 427.104 304.588 L 427.104 304.588 Q 427.104 304.236 427.455 304.219 L 427.455 304.219 L 435.734 304.219 L 435.734 304.219 Q 441.342 304.219 444.752 307.585 L 444.752 307.585 L 444.752 307.585 Q 448.162 310.951 448.162 316.822 L 448.162 316.822 L 448.162 316.822 Q 448.162 322.693 444.761 326.06 L 444.761 326.06 L 444.761 326.06 Q 441.359 329.426 435.734 329.426 L 435.734 329.426 L 427.455 329.426 L 427.455 329.426 Q 427.104 329.426 427.104 329.074 Z  M 430.338 306.75 L 430.338 326.912 L 435.734 326.912 L 435.734 326.912 Q 439.83 326.912 442.379 324.337 L 442.379 324.337 L 442.379 324.337 Q 444.928 321.762 444.928 316.831 L 444.928 316.831 L 444.928 316.831 Q 444.928 311.9 442.388 309.325 L 442.388 309.325 L 442.388 309.325 Q 439.848 306.75 435.734 306.75 L 435.734 306.75 L 430.338 306.75 L 430.338 306.75 Z  M 449.621 306.381 L 449.621 306.381 L 449.621 304.588 L 449.621 304.588 Q 449.621 304.236 449.973 304.219 L 449.973 304.219 L 470.504 304.219 L 470.504 304.219 Q 470.855 304.219 470.855 304.588 L 470.855 304.588 L 470.855 306.381 L 470.855 306.381 Q 470.855 306.732 470.504 306.75 L 470.504 306.75 L 461.68 306.75 L 461.68 329.074 L 461.68 329.074 Q 461.68 329.426 461.328 329.426 L 461.328 329.426 L 458.797 329.426 L 458.797 329.426 Q 458.445 329.426 458.445 329.074 L 458.445 329.074 L 458.445 306.75 L 449.973 306.75 L 449.973 306.75 Q 449.621 306.732 449.621 306.381 Z " fill="rgb(0,0,0)"/><path d=" M 406.221 328.635 L 406.221 328.635 L 406.221 326.877 L 406.221 326.877 Q 406.221 326.438 406.572 326.578 L 406.572 326.578 L 406.572 326.578 Q 408.734 327.439 411.477 327.439 L 411.477 327.439 L 411.477 327.439 Q 414.219 327.439 415.616 326.06 L 415.616 326.06 L 415.616 326.06 Q 417.014 324.68 417.014 321.691 L 417.014 321.691 L 417.014 306.75 L 408.734 306.75 L 408.734 306.75 Q 408.383 306.75 408.383 306.381 L 408.383 306.381 L 408.383 304.588 L 408.383 304.588 Q 408.383 304.236 408.734 304.219 L 408.734 304.219 L 419.896 304.219 L 419.896 304.219 Q 420.248 304.219 420.266 304.588 L 420.266 304.588 L 420.266 321.691 L 420.266 321.691 Q 420.266 325.541 418.068 327.756 L 418.068 327.756 L 418.068 327.756 Q 415.871 329.971 411.617 329.971 L 411.617 329.971 L 411.617 329.971 Q 408.734 329.971 406.572 329.109 L 406.572 329.109 L 406.572 329.109 Q 406.221 328.916 406.221 328.635 Z  M 427.104 329.074 L 427.104 329.074 L 427.104 304.588 L 427.104 304.588 Q 427.104 304.236 427.455 304.219 L 427.455 304.219 L 435.734 304.219 L 435.734 304.219 Q 441.342 304.219 444.752 307.585 L 444.752 307.585 L 444.752 307.585 Q 448.162 310.951 448.162 316.822 L 448.162 316.822 L 448.162 316.822 Q 448.162 322.693 444.761 326.06 L 444.761 326.06 L 444.761 326.06 Q 441.359 329.426 435.734 329.426 L 435.734 329.426 L 427.455 329.426 L 427.455 329.426 Q 427.104 329.426 427.104 329.074 Z  M 430.338 306.75 L 430.338 326.912 L 435.734 326.912 L 435.734 326.912 Q 439.83 326.912 442.379 324.337 L 442.379 324.337 L 442.379 324.337 Q 444.928 321.762 444.928 316.831 L 444.928 316.831 L 444.928 316.831 Q 444.928 311.9 442.388 309.325 L 442.388 309.325 L 442.388 309.325 Q 439.848 306.75 435.734 306.75 L 435.734 306.75 L 430.338 306.75 L 430.338 306.75 Z  M 449.621 306.381 L 449.621 306.381 L 449.621 304.588 L 449.621 304.588 Q 449.621 304.236 449.973 304.219 L 449.973 304.219 L 470.504 304.219 L 470.504 304.219 Q 470.855 304.219 470.855 304.588 L 470.855 304.588 L 470.855 306.381 L 470.855 306.381 Q 470.855 306.732 470.504 306.75 L 470.504 306.75 L 461.68 306.75 L 461.68 329.074 L 461.68 329.074 Q 461.68 329.426 461.328 329.426 L 461.328 329.426 L 458.797 329.426 L 458.797 329.426 Q 458.445 329.426 458.445 329.074 L 458.445 329.074 L 458.445 306.75 L 449.973 306.75 L 449.973 306.75 Q 449.621 306.732 449.621 306.381 Z " fill="rgb(0,0,0)"/><path d=" M 406.221 328.635 L 406.221 328.635 L 406.221 326.877 L 406.221 326.877 Q 406.221 326.438 406.572 326.578 L 406.572 326.578 L 406.572 326.578 Q 408.734 327.439 411.477 327.439 L 411.477 327.439 L 411.477 327.439 Q 414.219 327.439 415.616 326.06 L 415.616 326.06 L 415.616 326.06 Q 417.014 324.68 417.014 321.691 L 417.014 321.691 L 417.014 306.75 L 408.734 306.75 L 408.734 306.75 Q 408.383 306.75 408.383 306.381 L 408.383 306.381 L 408.383 304.588 L 408.383 304.588 Q 408.383 304.236 408.734 304.219 L 408.734 304.219 L 419.896 304.219 L 419.896 304.219 Q 420.248 304.219 420.266 304.588 L 420.266 304.588 L 420.266 321.691 L 420.266 321.691 Q 420.266 325.541 418.068 327.756 L 418.068 327.756 L 418.068 327.756 Q 415.871 329.971 411.617 329.971 L 411.617 329.971 L 411.617 329.971 Q 408.734 329.971 406.572 329.109 L 406.572 329.109 L 406.572 329.109 Q 406.221 328.916 406.221 328.635 Z  M 427.104 329.074 L 427.104 329.074 L 427.104 304.588 L 427.104 304.588 Q 427.104 304.236 427.455 304.219 L 427.455 304.219 L 435.734 304.219 L 435.734 304.219 Q 441.342 304.219 444.752 307.585 L 444.752 307.585 L 444.752 307.585 Q 448.162 310.951 448.162 316.822 L 448.162 316.822 L 448.162 316.822 Q 448.162 322.693 444.761 326.06 L 444.761 326.06 L 444.761 326.06 Q 441.359 329.426 435.734 329.426 L 435.734 329.426 L 427.455 329.426 L 427.455 329.426 Q 427.104 329.426 427.104 329.074 Z  M 430.338 306.75 L 430.338 326.912 L 435.734 326.912 L 435.734 326.912 Q 439.83 326.912 442.379 324.337 L 442.379 324.337 L 442.379 324.337 Q 444.928 321.762 444.928 316.831 L 444.928 316.831 L 444.928 316.831 Q 444.928 311.9 442.388 309.325 L 442.388 309.325 L 442.388 309.325 Q 439.848 306.75 435.734 306.75 L 435.734 306.75 L 430.338 306.75 L 430.338 306.75 Z  M 449.621 306.381 L 449.621 306.381 L 449.621 304.588 L 449.621 304.588 Q 449.621 304.236 449.973 304.219 L 449.973 304.219 L 470.504 304.219 L 470.504 304.219 Q 470.855 304.219 470.855 304.588 L 470.855 304.588 L 470.855 306.381 L 470.855 306.381 Q 470.855 306.732 470.504 306.75 L 470.504 306.75 L 461.68 306.75 L 461.68 329.074 L 461.68 329.074 Q 461.68 329.426 461.328 329.426 L 461.328 329.426 L 458.797 329.426 L 458.797 329.426 Q 458.445 329.426 458.445 329.074 L 458.445 329.074 L 458.445 306.75 L 449.973 306.75 L 449.973 306.75 Q 449.621 306.732 449.621 306.381 Z " fill="rgb(70,70,70)"/><g style="isolation: isolate;"><path d=" M 406.221 328.635 L 406.221 328.635 L 406.221 326.877 L 406.221 326.877 Q 406.221 326.438 406.572 326.578 L 406.572 326.578 L 406.572 326.578 Q 408.734 327.439 411.477 327.439 L 411.477 327.439 L 411.477 327.439 Q 414.219 327.439 415.616 326.06 L 415.616 326.06 L 415.616 326.06 Q 417.014 324.68 417.014 321.691 L 417.014 321.691 L 417.014 306.75 L 408.734 306.75 L 408.734 306.75 Q 408.383 306.75 408.383 306.381 L 408.383 306.381 L 408.383 304.588 L 408.383 304.588 Q 408.383 304.236 408.734 304.219 L 408.734 304.219 L 419.896 304.219 L 419.896 304.219 Q 420.248 304.219 420.266 304.588 L 420.266 304.588 L 420.266 321.691 L 420.266 321.691 Q 420.266 325.541 418.068 327.756 L 418.068 327.756 L 418.068 327.756 Q 415.871 329.971 411.617 329.971 L 411.617 329.971 L 411.617 329.971 Q 408.734 329.971 406.572 329.109 L 406.572 329.109 L 406.572 329.109 Q 406.221 328.916 406.221 328.635 Z  M 427.104 329.074 L 427.104 329.074 L 427.104 304.588 L 427.104 304.588 Q 427.104 304.236 427.455 304.219 L 427.455 304.219 L 435.734 304.219 L 435.734 304.219 Q 441.342 304.219 444.752 307.585 L 444.752 307.585 L 444.752 307.585 Q 448.162 310.951 448.162 316.822 L 448.162 316.822 L 448.162 316.822 Q 448.162 322.693 444.761 326.06 L 444.761 326.06 L 444.761 326.06 Q 441.359 329.426 435.734 329.426 L 435.734 329.426 L 427.455 329.426 L 427.455 329.426 Q 427.104 329.426 427.104 329.074 Z  M 430.338 306.75 L 430.338 326.912 L 435.734 326.912 L 435.734 326.912 Q 439.83 326.912 442.379 324.337 L 442.379 324.337 L 442.379 324.337 Q 444.928 321.762 444.928 316.831 L 444.928 316.831 L 444.928 316.831 Q 444.928 311.9 442.388 309.325 L 442.388 309.325 L 442.388 309.325 Q 439.848 306.75 435.734 306.75 L 435.734 306.75 L 430.338 306.75 L 430.338 306.75 Z  M 449.621 306.381 L 449.621 306.381 L 449.621 304.588 L 449.621 304.588 Q 449.621 304.236 449.973 304.219 L 449.973 304.219 L 470.504 304.219 L 470.504 304.219 Q 470.855 304.219 470.855 304.588 L 470.855 304.588 L 470.855 306.381 L 470.855 306.381 Q 470.855 306.732 470.504 306.75 L 470.504 306.75 L 461.68 306.75 L 461.68 329.074 L 461.68 329.074 Q 461.68 329.426 461.328 329.426 L 461.328 329.426 L 458.797 329.426 L 458.797 329.426 Q 458.445 329.426 458.445 329.074 L 458.445 329.074 L 458.445 306.75 L 449.973 306.75 L 449.973 306.75 Q 449.621 306.732 449.621 306.381 Z " fill="none" vector-effect="non-scaling-stroke" stroke-width="1" stroke="rgb(0,0,0)" stroke-linejoin="miter" stroke-linecap="square" stroke-miterlimit="3"/></g></g></g></svg>